<svg width="380" height="140" viewBox="0 0 380 140" xmlns="http://www.w3.org/2000/svg">
  <defs>
    <linearGradient id="text-static" x1="0%" y1="0%" x2="100%" y2="0%">
      <stop offset="50%" stop-color="#ffffff"/>
      <stop offset="50%" stop-color="#B91C1C"/>
    </linearGradient>

    <radialGradient id="badge-static" cx="35%" cy="30%" r="75%">
      <stop offset="0%" stop-color="#E11D2E"/>
      <stop offset="55%" stop-color="#B91C1C"/>
      <stop offset="100%" stop-color="#5A0D0D"/>
    </radialGradient>

    <linearGradient id="scale-static" x1="0%" y1="0%" x2="0%" y2="100%">
      <stop offset="0%" stop-color="#FFD98A"/>
      <stop offset="45%" stop-color="#F5B942"/>
      <stop offset="100%" stop-color="#B9791E"/>
    </linearGradient>

    <linearGradient id="horn-static" x1="0%" y1="0%" x2="100%" y2="100%">
      <stop offset="0%" stop-color="#FFE9B8"/>
      <stop offset="100%" stop-color="#C8901F"/>
    </linearGradient>

    <radialGradient id="shine-static" cx="32%" cy="24%" r="40%">
      <stop offset="0%" stop-color="#ffffff" stop-opacity="0.55"/>
      <stop offset="100%" stop-color="#ffffff" stop-opacity="0"/>
    </radialGradient>

    <filter id="depth-static" x="-40%" y="-40%" width="180%" height="180%">
      <feDropShadow dx="0" dy="3" stdDeviation="2.5" flood-color="#000000" flood-opacity="0.45"/>
    </filter>
  </defs>

  <g filter="url(#depth-static)">
    <g transform="translate(18,26)">
      <circle cx="42" cy="44" r="40" fill="url(#badge-static)"/>
      <circle cx="42" cy="44" r="40" fill="none" stroke="#3A0808" stroke-width="1.5" opacity="0.6"/>

      <path d="M22 12 L30 30 L14 27 Z" fill="url(#horn-static)"/>
      <path d="M62 12 L54 30 L70 27 Z" fill="url(#horn-static)"/>

      <path d="M12 46 Q42 14 72 46 Q58 40 42 43 Q26 40 12 46 Z" fill="url(#scale-static)"/>
      <path d="M18 56 Q42 74 66 56 Q54 66 42 66 Q30 66 18 56 Z" fill="url(#scale-static)"/>

      <path d="M28 44 Q42 38 56 44" stroke="#5A0D0D" stroke-width="2" fill="none" opacity="0.5"/>

      <circle cx="31" cy="43" r="3.6" fill="#2A0505"/>
      <circle cx="53" cy="43" r="3.6" fill="#2A0505"/>
      <circle cx="32.2" cy="41.7" r="1.1" fill="#ffffff"/>
      <circle cx="54.2" cy="41.7" r="1.1" fill="#ffffff"/>

      <path d="M36 54 L42 64 L48 54 Z" fill="#FFF6E0"/>

      <circle cx="42" cy="44" r="40" fill="url(#shine-static)"/>
    </g>
  </g>

  <text x="112" y="85" font-family="Inter, Poppins, Arial, sans-serif" font-size="46" font-weight="900" letter-spacing="0.5" fill="url(#text-static)">CodeDragon</text>
</svg>
